<svg xmlns="http://www.w3.org/2000/svg" fill="white" viewBox="0 0 612.006 612.006" style="enable-background:new 0 0 612.006 612.006" xml:space="preserve"><path d="M225.71 372.743h308.2c17.543 0 26.963-18.847 31.886-35.805l46.21-216.475H147.627l46.198 216.475c3.673 17.161 14.349 35.805 31.885 35.805zm259.523-55.267 31.886-150.113c1.827-8.608 10.27-14.115 18.903-12.282 8.608 1.827 14.109 10.294 12.282 18.903l-31.886 150.113c-1.594 7.495-8.208 12.632-15.58 12.632-1.095 0-2.209-.117-3.323-.351-8.615-1.827-14.104-10.288-12.282-18.902zm-80.016 2.184 10.633-150.113c.615-8.781 8.214-15.389 17.026-14.774 8.781.621 15.395 8.245 14.774 17.032l-10.633 150.113c-.591 8.399-7.587 14.817-15.881 14.817-.381 0-.757-.012-1.144-.037-8.782-.634-15.397-8.257-14.775-17.038zm-80.871-164.892c8.713-.634 16.41 5.993 17.026 14.774l10.627 150.113c.628 8.781-5.999 16.404-14.774 17.032-.388.025-.763.037-1.144.037-8.294 0-15.291-6.418-15.881-14.817l-10.626-150.106c-.63-8.782 5.991-16.412 14.772-17.033zm-103.146.313c8.621-1.827 17.069 3.673 18.903 12.282l31.886 150.113c1.828 8.608-3.667 17.075-12.288 18.903-1.114.24-2.227.351-3.323.351-7.365 0-13.986-5.138-15.58-12.632l-31.886-150.113c-1.827-8.616 3.674-17.076 12.288-18.904zM245.88 459.608c-30.071 0-54.449 24.379-54.449 54.449 0 30.07 24.379 54.449 54.449 54.449s54.449-24.379 54.449-54.449c.001-30.071-24.378-54.449-54.449-54.449zm0 74.865c-11.279 0-20.416-9.137-20.416-20.416 0-11.273 9.137-20.416 20.416-20.416s20.416 9.144 20.416 20.416c.007 11.279-9.137 20.416-20.416 20.416zM504.517 459.608c-30.077 0-54.456 24.379-54.456 54.449 0 30.07 24.379 54.449 54.456 54.449 30.071 0 54.449-24.379 54.449-54.449 0-30.071-24.379-54.449-54.449-54.449zm0 74.865c-11.279 0-20.416-9.137-20.416-20.416 0-11.273 9.137-20.416 20.416-20.416 11.273 0 20.416 9.144 20.416 20.416.006 11.279-9.144 20.416-20.416 20.416z"/><path d="M586.987 437.401H174.873c-14.829 0-27.523-10.091-30.864-24.533L66.91 80.419H18.46C8.264 80.419 0 72.155 0 61.959S8.264 43.5 18.459 43.5h52.616c14.817 0 27.511 10.085 30.864 24.514l77.105 332.468h407.949c10.196 0 18.459 8.264 18.459 18.46-.005 10.201-8.263 18.459-18.465 18.459z"/></svg>